HIERARCHY
ROOT Hips
{
	OFFSET 0.00000 0.00000 0.00000
	CHANNELS 6 Xposition Yposition Zposition Yrotation Zrotation Xrotation 
	JOINT Lumbar
	{
		OFFSET 0 0 0
		CHANNELS 3 Zrotation Xrotation Yrotation
		JOINT Neck
		{
			OFFSET 0.00 0.2701 0.00
			CHANNELS 3 Zrotation Xrotation Yrotation
			End Site
			{
				OFFSET 0.00 0.1379 0.00
			}
		}
		JOINT RightShoulder
		{
			OFFSET 0.0119 0.2289 0.1181
			CHANNELS 3 Zrotation Xrotation Yrotation
			JOINT RightElbow
			{
				OFFSET 0.00 -0.1475 0.00
				CHANNELS 2 Zrotation Yrotation
				JOINT RightWrist
				{
					OFFSET 0.00 -0.1605 0.00
					CHANNELS 2 Zrotation Xrotation
					End Site
					{
						OFFSET 0.0040 -0.1068 0.0006
					}
				}
			}
		}
		JOINT LeftShoulder
		{
			OFFSET 0.0119 0.2289 -0.1181
			CHANNELS 3 Zrotation Xrotation Yrotation
			JOINT LeftElbow
			{
				OFFSET 0.00 -0.1475 0.00
				CHANNELS 2 Zrotation Yrotation
				JOINT LeftWrist
				{
					OFFSET 0.00 -0.1605 0.00
					CHANNELS 2 Zrotation Xrotation
					End Site
					{
						OFFSET 0.0040 -0.1068 -0.0006
					}
				}
			}
		}
	}
	JOINT RightHip
	{
		OFFSET 0.0316 -0.0424 0.0458
		CHANNELS 3 Zrotation Xrotation Yrotation
		JOINT RightKnee
		{
			OFFSET 0.00 -0.2438 0.00
			CHANNELS 1 Zrotation
			JOINT RightAnkle
			{
				OFFSET 0.00 -0.2449 0.00
				CHANNELS 3 Zrotation Xrotation Yrotation
				End Site
				{
					OFFSET 0.1237 -0.0542 0.0051
				}
			}
		}
	}
	JOINT LeftHip
	{
		OFFSET 0.0316 -0.0424 -0.0458
		CHANNELS 3 Zrotation Xrotation Yrotation
		JOINT LeftKnee
		{
			OFFSET 0.00 -0.2438 0.00
			CHANNELS 1 Zrotation
			JOINT LeftAnkle
			{
				OFFSET 0.00 -0.2449 0.00
				CHANNELS 3 Zrotation Xrotation Yrotation
				End Site
				{
					OFFSET 0.1237 -0.0542 -0.0051
				}
			}
		}
	}
}
MOTION
Frames: 19
Frame Time: 0.02
0.00015 0 -0.00017 -179.82145 -33.75695 -3.17159 43.04405 3.28219 -4.89709 -15.4178 -1.11758 -0.50667 39.34886 -101.09098 64.17119 8.13639 92.02462 7.90345 -0.05974 41.95799 101.42766 -64.17415 7.47412 -88.72109 5.62066 0.56115 37.04456 -1.97069 -1.74556 -22.13407 -7.00441 -3.91469 -2.69345 41.26684 8.7198 -0.33791 -27.445 -7.09971 3.73466 2.63334
5e-05 -1e-05 -0.0001 -179.82683 -33.75291 -3.17724 43.04019 3.29005 -4.88024 -15.42596 -1.11727 -0.50686 39.44514 -101.06763 64.17119 8.11659 92.02345 7.93974 -0.06084 42.07616 101.41993 -64.17354 7.46535 -88.7527 5.66339 0.56934 37.0272 -1.99861 -1.87895 -22.1337 -6.99798 -3.89993 -2.68456 41.25014 8.73314 -0.27521 -27.44734 -7.09786 3.73545 2.63206
-5e-05 -1e-05 -4e-05 -179.8322 -33.74889 -3.18285 43.03633 3.29791 -4.86341 -15.43409 -1.11697 -0.50705 39.54104 -101.04437 64.17119 8.0969 92.02229 7.97588 -0.06197 42.19428 101.41222 -64.17294 7.45662 -88.7842 5.70599 0.57748 37.00992 -2.02651 -2.01225 -22.13336 -6.99156 -3.88517 -2.67568 41.2335 8.74634 -0.21307 -27.44968 -7.09603 3.73627 2.63081
-0.00015 -2e-05 3e-05 -179.83756 -33.74485 -3.18848 43.03248 3.30575 -4.8466 -15.44223 -1.11666 -0.50724 39.63699 -101.02109 64.17119 8.07716 92.02112 8.01206 -0.06308 42.31215 101.40451 -64.17233 7.44787 -88.81571 5.74861 0.58563 36.99262 -2.05437 -2.14531 -22.13299 -6.98515 -3.87045 -2.66681 41.21685 8.7596 -0.15065 -27.45201 -7.0942 3.73707 2.62954
-0.00025 -3e-05 0.0001 -179.84291 -33.7408 -3.19414 43.02865 3.31358 -4.82981 -15.45039 -1.11633 -0.50744 39.73343 -100.99773 64.17119 8.05732 92.01996 8.04838 -0.06416 42.42992 101.39678 -64.17172 7.43912 -88.84734 5.79134 0.59383 36.97523 -2.08218 -2.27829 -22.13259 -6.97874 -3.85574 -2.65795 41.20014 8.77307 -0.08745 -27.45433 -7.09233 3.73784 2.62823
-0.00035 -4e-05 0.00016 -179.84831 -33.73685 -3.19966 43.02472 3.32153 -4.81292 -15.45845 -1.11608 -0.50763 39.82821 -100.97465 64.17119 8.03792 92.01879 8.08415 -0.06539 42.54876 101.38912 -64.17112 7.43044 -88.87856 5.83362 0.60184 36.95819 -2.11025 -2.41218 -22.13237 -6.9723 -3.84091 -2.64902 41.18368 8.78571 -0.02752 -27.45671 -7.09058 3.73874 2.62707
-0.00045 -5e-05 0.00023 -179.85365 -33.73268 -3.20545 43.021 3.32922 -4.7962 -15.46671 -1.11568 -0.50782 39.92604 -100.95103 64.1712 8.01762 92.01763 8.12102 -0.06633 42.66538 101.38132 -64.1705 7.42155 -88.91056 5.87685 0.61023 36.94045 -2.13784 -2.54429 -22.13178 -6.96591 -3.8263 -2.64022 41.16669 8.79994 0.03875 -27.45897 -7.08861 3.7394 2.62563
-0.00055 -6e-05 0.0003 -179.85895 -33.72874 -3.21099 43.01705 3.33714 -4.77938 -15.47478 -1.1154 -0.50801 40.0214 -100.92792 64.17119 7.99824 92.01648 8.15681 -0.06751 42.78393 101.37367 -64.16989 7.41297 -88.94185 5.91904 0.61828 36.92339 -2.16575 -2.67769 -22.13155 -6.95949 -3.81154 -2.63134 41.15025 8.81283 0.09949 -27.46134 -7.08684 3.74025 2.62443
-0.00064 -7e-05 0.00036 -179.86462 -33.725 -3.21622 43.01295 3.34542 -4.76221 -15.48265 -1.11534 -0.5082 40.11242 -100.90539 64.1712 7.97959 92.01528 8.19156 -0.06908 42.90542 101.3661 -64.16933 7.40431 -88.97228 5.96062 0.62585 36.90703 -2.19459 -2.81415 -22.1317 -6.95296 -3.79637 -2.62221 41.13423 8.82356 0.15214 -27.46386 -7.08532 3.74146 2.62362
-0.00075 -8e-05 0.00043 -179.86938 -33.71987 -3.22324 43.0101 3.35183 -4.74636 -15.49177 -1.11424 -0.5084 40.22442 -100.87938 64.17119 7.95559 92.01416 8.23313 -0.06869 43.01173 101.35778 -64.1686 7.39473 -89.00767 6.00773 0.636 36.88623 -2.21969 -2.9375 -22.12949 -6.94686 -3.78291 -2.61407 41.11505 8.84514 0.24733 -27.46556 -7.08238 3.74098 2.62086
-0.00083 -8e-05 0.00049 -179.87527 -33.71779 -3.22649 43.0044 3.36205 -4.72819 -15.49819 -1.11521 -0.50859 40.29472 -100.86081 64.17119 7.94361 92.01299 8.25978 -0.07227 43.1489 101.35123 -64.16815 7.38798 -89.03257 6.04185 0.6408 36.87508 -2.25164 -3.0856 -22.13237 -6.93999 -3.76625 -2.6041 41.10302 8.84487 0.25539 -27.46895 -7.0824 3.74381 2.622
-0.00084 -7e-05 0.00055 -179.89065 -33.72316 -3.21907 42.99256 3.38399 -4.69966 -15.49772 -1.12298 -0.50876 40.22843 -100.86214 64.17122 7.95969 92.01105 8.24844 -0.0882 43.38225 101.34791 -64.16867 7.38252 -89.02848 6.05024 0.63017 36.88842 -2.31124 -3.32745 -22.14849 -6.92973 -3.73731 -2.5869 41.10671 8.77491 -0.00176 -27.47735 -7.09098 3.75815 2.63592
-0.00082 -4e-05 0.0006 -179.90588 -33.73173 -3.20788 42.97753 3.40952 -4.66954 -15.49448 -1.13263 -0.50892 40.12441 -100.87107 64.17114 7.9893 92.00932 8.22083 -0.10785 43.645 101.34665 -64.16921 7.38157 -89.01381 6.04338 0.61435 36.91178 -2.37622 -3.59031 -22.16986 -6.91888 -3.70573 -2.56822 41.11826 8.68449 -0.34304 -27.48736 -7.10251 3.77551 2.65348
-0.0008 -2e-05 0.00063 -179.91708 -33.73948 -3.19865 42.96289 3.4326 -4.64274 -15.4921 -1.14071 -0.50909 40.05206 -100.8768 64.17125 8.01524 92.00778 8.1997 -0.12484 43.88609 101.34552 -64.16987 7.38221 -89.0042 6.03747 0.60133 36.93194 -2.43275 -3.82551 -22.18931 -6.90919 -3.67778 -2.5517 41.12882 8.61021 -0.62686 -27.49642 -7.1123 3.7897 2.66792
-0.00081 -0 0.00074 -179.94591 -33.74472 -3.18851 42.95277 3.45917 -4.60496 -15.49123 -1.15183 -0.50926 39.91814 -100.88133 64.17124 8.02847 92.00455 8.18549 -0.14592 44.16002 101.33995 -64.17088 7.3656 -88.99384 6.05822 0.58625 36.94664 -2.51403 -4.13336 -22.20682 -6.8959 -3.63996 -2.5291 41.12865 8.50835 -0.98592 -27.50647 -7.12352 3.81087 2.68817
-0.00076 2e-05 0.0007 -179.93755 -33.75573 -3.17918 42.93241 3.47928 -4.58968 -15.48679 -1.15703 -0.50943 39.90374 -100.89036 64.17086 8.07424 92.00552 8.14915 -0.15937 44.37532 101.34407 -64.17005 7.38838 -88.9821 6.01802 0.57444 36.97477 -2.54583 -4.29967 -22.22961 -6.88976 -3.6216 -2.51855 41.15249 8.45738 -1.21585 -27.51476 -7.1328 3.81898 2.69767
-0.00054 8e-05 0.0003 -179.83024 -33.78362 -3.17451 42.88523 3.48119 -4.63671 -15.47127 -1.14568 -0.50961 40.22918 -100.90779 64.1719 8.18298 92.01171 8.0896 -0.15043 44.40108 101.3742 -64.17254 7.49902 -88.97298 5.82981 0.57106 37.0402 -2.43268 -4.02796 -22.26581 -6.90553 -3.66155 -2.54414 41.24244 8.5673 -1.00012 -27.51838 -7.1328 3.78338 2.67214
-0.00025 0.00013 -0.00025 -179.68481 -33.81685 -3.17044 42.82771 3.47643 -4.70639 -15.45264 -1.12824 -0.5098 40.67765 -100.92962 64.1702 8.32907 92.02266 8.00275 -0.13351 44.37322 101.41372 -64.17085 7.65328 -88.96215 5.57844 0.57132 37.11832 -2.27074 -3.6203 -22.30714 -6.92817 -3.72049 -2.5815 41.356 8.72674 -0.66237 -27.52006 -7.13124 3.73559 2.63636
1e-05 0.00019 -0.00074 -179.55439 -33.8465 -3.16517 42.77448 3.47432 -4.76598 -15.43666 -1.11344 -0.50998 41.06746 -100.95122 64.17065 8.47265 92.03641 7.9052 -0.12084 44.38004 101.44951 -64.16649 7.8 -88.94961 5.34417 0.5714 37.18884 -2.13586 -3.30322 -22.34606 -6.94633 -3.7681 -2.61181 41.45757 8.85284 -0.42784 -27.52224 -7.13262 3.69821 2.60836
